<?xml version="1.0" encoding="utf-8"?>
<!-- Generator: Adobe Illustrator 27.5.0, SVG Export Plug-In . SVG Version: 6.00 Build 0)  -->
<svg version="1.1" xmlns="http://www.w3.org/2000/svg" xmlns:xlink="http://www.w3.org/1999/xlink" x="0px" y="0px"
	 viewBox="0 0 500 500" style="enable-background:new 0 0 500 500;" xml:space="preserve">
<g id="BACKGROUND">
	<rect style="fill:#FFFFFF;" width="500" height="500"/>
</g>
<g id="OBJECTS">
	<g>
		<g>
			<g>
				<g>
					<path style="fill:#A5AFD3;" d="M479.661,435.363c0,1.908-1.338,3.492-5.088,3.492l-225.306-0.041
						c-6.759,0-12.238-1.543-12.238-3.451v-6.815c0-1.908,5.479-3.453,12.238-3.453h218.155c6.754,0,12.4-0.648,12.4,1.26
						L479.661,435.363z"/>
					<rect x="21.323" y="417.451" style="fill:#8C95AF;" width="461.354" height="10.525"/>
				</g>
				<g>
					<polygon style="fill:#2F3C4F;" points="93.22,415.83 100.48,440.348 199.96,440.348 220.292,415.35 					"/>
					<polygon style="opacity:0.2;fill:#A5AFD3;" points="205.585,432.59 98.421,432.59 96.807,427.438 209.354,428.541 					"/>
				</g>
			</g>
			<rect x="293.03" y="409.037" style="fill:#2F3C4F;" width="10.383" height="8.414"/>
		</g>
		<g>
			<g>
				<path style="fill:#2F3C4F;" d="M68.148,430.592c0,12.57-10.191,22.76-22.762,22.76c-12.569,0-22.759-10.189-22.759-22.76
					c0-12.57,10.19-22.76,22.759-22.76C57.957,407.832,68.148,418.022,68.148,430.592z"/>
				<path style="opacity:0.2;fill:#A5AFD3;" d="M64.068,430.592c0,10.318-8.363,18.684-18.682,18.684
					c-10.316,0-18.681-8.365-18.681-18.684c0-10.316,8.364-18.682,18.681-18.682C55.705,411.91,64.068,420.275,64.068,430.592z"/>
				<path style="fill:#DFE5FF;" d="M56.309,430.594c0,6.029-4.891,10.918-10.922,10.918c-6.029,0-10.919-4.889-10.919-10.918
					c0-6.031,4.89-10.92,10.919-10.92C51.418,419.674,56.309,424.563,56.309,430.594z"/>
				<path style="fill:none;stroke:#003242;stroke-miterlimit:10;" d="M31.039,433.504c0,6.969,5.637,12.602,12.603,12.602"/>
				<path style="fill:none;stroke:#003242;stroke-miterlimit:10;" d="M60.178,432.941c1.727-6.75-2.343-13.605-9.09-15.328"/>
				<g>
					<path style="fill:#A5AFD3;" d="M38.874,432.105c0,0.654-0.529,1.184-1.183,1.184c-0.654,0-1.184-0.529-1.184-1.184
						s0.529-1.184,1.184-1.184C38.345,430.922,38.874,431.451,38.874,432.105z"/>
					<path style="fill:#A5AFD3;" d="M42.69,437.369c0,0.652-0.531,1.184-1.184,1.184c-0.653,0-1.185-0.531-1.185-1.184
						c0-0.654,0.531-1.186,1.185-1.186C42.159,436.184,42.69,436.715,42.69,437.369z"/>
					<path style="fill:#A5AFD3;" d="M49.927,437.631c0,0.654-0.531,1.186-1.185,1.186c-0.654,0-1.184-0.531-1.184-1.186
						s0.529-1.184,1.184-1.184C49.396,436.447,49.927,436.977,49.927,437.631z"/>
					<path style="fill:#A5AFD3;" d="M54.531,432.367c0,0.656-0.528,1.186-1.184,1.186c-0.655,0-1.185-0.529-1.185-1.186
						c0-0.652,0.529-1.182,1.185-1.182C54.003,431.185,54.531,431.715,54.531,432.367z"/>
					<path style="fill:#A5AFD3;" d="M52.952,425.922c0,0.654-0.529,1.184-1.183,1.184c-0.655,0-1.185-0.529-1.185-1.184
						s0.529-1.184,1.185-1.184C52.423,424.738,52.952,425.268,52.952,425.922z"/>
					<path style="fill:#A5AFD3;" d="M47.427,423.158c0,0.654-0.53,1.184-1.185,1.184c-0.653,0-1.184-0.529-1.184-1.184
						c0-0.652,0.53-1.182,1.184-1.182C46.896,421.977,47.427,422.506,47.427,423.158z"/>
					<path style="fill:#A5AFD3;" d="M40.849,424.869c0,0.656-0.53,1.186-1.184,1.186c-0.654,0-1.184-0.529-1.184-1.186
						c0-0.654,0.529-1.184,1.184-1.184C40.318,423.685,40.849,424.215,40.849,424.869z"/>
				</g>
				<path style="fill:#2F3C4F;" d="M49.269,430.133c0,2.035-1.65,3.684-3.684,3.684c-2.034,0-3.684-1.648-3.684-3.684
					c0-2.035,1.649-3.686,3.684-3.686C47.619,426.447,49.269,428.098,49.269,430.133z"/>
				<path style="opacity:0.3;fill:#2F3C4F;" d="M30.7,428.402c2.589-1.094,5.54-1.729,8.362-1.596
					c3.617,0.17,6.534,1.707,9.938,2.715c6.055,1.797,13.118-0.338,18.716-3.352c-2.059-10.451-11.272-18.338-22.329-18.338
					c-12.569,0-22.759,10.19-22.759,22.76c0,1.162,0.089,2.303,0.256,3.418C24.951,431.566,27.705,429.672,30.7,428.402z"/>
			</g>
			<g>
				<path style="fill:#2F3C4F;" d="M115.708,430.592c0,12.57-10.19,22.76-22.761,22.76c-12.568,0-22.759-10.189-22.759-22.76
					c0-12.57,10.19-22.76,22.759-22.76C105.518,407.832,115.708,418.022,115.708,430.592z"/>
				<path style="opacity:0.2;fill:#A5AFD3;" d="M111.629,430.592c0,10.318-8.364,18.684-18.682,18.684
					c-10.316,0-18.68-8.365-18.68-18.684c0-10.316,8.363-18.682,18.68-18.682C103.265,411.91,111.629,420.275,111.629,430.592z"/>
				<path style="fill:#DFE5FF;" d="M103.867,430.594c0,6.029-4.889,10.918-10.92,10.918c-6.03,0-10.919-4.889-10.919-10.918
					c0-6.031,4.889-10.92,10.919-10.92C98.979,419.674,103.867,424.563,103.867,430.594z"/>
				<path style="fill:none;stroke:#003242;stroke-miterlimit:10;" d="M78.6,433.504c0,6.969,5.638,12.602,12.604,12.602"/>
				<path style="fill:none;stroke:#003242;stroke-miterlimit:10;" d="M107.739,432.941c1.726-6.75-2.341-13.605-9.092-15.328"/>
				<g>
					<path style="fill:#A5AFD3;" d="M86.437,432.105c0,0.654-0.53,1.184-1.186,1.184c-0.653,0-1.184-0.529-1.184-1.184
						s0.53-1.184,1.184-1.184C85.906,430.922,86.437,431.451,86.437,432.105z"/>
					<path style="fill:#A5AFD3;" d="M90.251,437.369c0,0.652-0.529,1.184-1.184,1.184c-0.655,0-1.185-0.531-1.185-1.184
						c0-0.654,0.529-1.186,1.185-1.186C89.722,436.184,90.251,436.715,90.251,437.369z"/>
					<path style="fill:#A5AFD3;" d="M97.487,437.631c0,0.654-0.53,1.186-1.184,1.186c-0.654,0-1.185-0.531-1.185-1.186
						s0.53-1.184,1.185-1.184C96.957,436.447,97.487,436.977,97.487,437.631z"/>
					<path style="fill:#A5AFD3;" d="M102.093,432.367c0,0.656-0.531,1.186-1.186,1.186c-0.654,0-1.184-0.529-1.184-1.186
						c0-0.652,0.529-1.182,1.184-1.182C101.562,431.185,102.093,431.715,102.093,432.367z"/>
					<circle style="fill:#A5AFD3;" cx="99.329" cy="425.922" r="1.184"/>
					<path style="fill:#A5AFD3;" d="M94.987,423.158c0,0.654-0.529,1.184-1.185,1.184c-0.654,0-1.184-0.529-1.184-1.184
						c0-0.652,0.529-1.182,1.184-1.182C94.458,421.977,94.987,422.506,94.987,423.158z"/>
					<path style="fill:#A5AFD3;" d="M88.409,424.869c0,0.656-0.53,1.186-1.185,1.186c-0.653,0-1.184-0.529-1.184-1.186
						c0-0.654,0.53-1.184,1.184-1.184C87.879,423.685,88.409,424.215,88.409,424.869z"/>
				</g>
				<path style="fill:#2F3C4F;" d="M96.83,430.133c0,2.035-1.65,3.684-3.686,3.684c-2.033,0-3.683-1.648-3.683-3.684
					c0-2.035,1.649-3.686,3.683-3.686C95.18,426.447,96.83,428.098,96.83,430.133z"/>
				<path style="opacity:0.3;fill:#2F3C4F;" d="M78.261,428.402c2.589-1.094,5.54-1.729,8.361-1.596
					c3.619,0.17,6.536,1.707,9.938,2.715c6.054,1.797,13.118-0.338,18.715-3.352c-2.059-10.451-11.271-18.338-22.328-18.338
					c-12.568,0-22.759,10.19-22.759,22.76c0,1.162,0.089,2.303,0.256,3.418C72.511,431.566,75.266,429.672,78.261,428.402z"/>
			</g>
		</g>
		<g>
			<g>
				<path style="fill:#2F3C4F;" d="M222.637,431.02c0,12.57-10.191,22.76-22.762,22.76c-12.567,0-22.758-10.189-22.758-22.76
					s10.19-22.76,22.758-22.76C212.445,408.26,222.637,418.449,222.637,431.02z"/>
				<path style="opacity:0.2;fill:#A5AFD3;" d="M218.559,431.02c0,10.318-8.365,18.682-18.684,18.682
					c-10.315,0-18.681-8.363-18.681-18.682c0-10.316,8.365-18.684,18.681-18.684C210.193,412.336,218.559,420.703,218.559,431.02z"
					/>
				<path style="fill:#DFE5FF;" d="M210.796,431.02c0,6.031-4.889,10.92-10.921,10.92c-6.029,0-10.919-4.889-10.919-10.92
					c0-6.029,4.89-10.92,10.919-10.92C205.907,420.1,210.796,424.99,210.796,431.02z"/>
				<path style="fill:none;stroke:#003242;stroke-miterlimit:10;" d="M185.528,433.932c0,6.969,5.637,12.602,12.603,12.602"/>
				<path style="fill:none;stroke:#003242;stroke-miterlimit:10;" d="M214.667,433.369c1.725-6.752-2.342-13.605-9.09-15.33"/>
				<g>
					<path style="fill:#A5AFD3;" d="M193.364,432.533c0,0.652-0.529,1.182-1.185,1.182c-0.653,0-1.184-0.529-1.184-1.182
						c0-0.654,0.53-1.186,1.184-1.186C192.835,431.348,193.364,431.879,193.364,432.533z"/>
					<path style="fill:#A5AFD3;" d="M197.179,437.797c0,0.652-0.529,1.182-1.184,1.182c-0.654,0-1.184-0.529-1.184-1.182
						c0-0.656,0.529-1.188,1.184-1.188C196.649,436.609,197.179,437.141,197.179,437.797z"/>
					<path style="fill:#A5AFD3;" d="M204.416,438.059c0,0.654-0.53,1.184-1.185,1.184c-0.653,0-1.186-0.529-1.186-1.184
						s0.532-1.184,1.186-1.184C203.886,436.875,204.416,437.404,204.416,438.059z"/>
					<path style="fill:#A5AFD3;" d="M209.021,432.795c0,0.654-0.531,1.186-1.186,1.186c-0.653,0-1.184-0.531-1.184-1.186
						s0.53-1.184,1.184-1.184C208.49,431.611,209.021,432.141,209.021,432.795z"/>
					<path style="fill:#A5AFD3;" d="M207.441,426.35c0,0.652-0.53,1.182-1.185,1.182c-0.653,0-1.183-0.529-1.183-1.182
						c0-0.654,0.529-1.184,1.183-1.184C206.911,425.166,207.441,425.695,207.441,426.35z"/>
					<path style="fill:#A5AFD3;" d="M201.915,423.586c0,0.654-0.529,1.184-1.184,1.184c-0.653,0-1.184-0.529-1.184-1.184
						s0.53-1.184,1.184-1.184C201.386,422.402,201.915,422.932,201.915,423.586z"/>
					<path style="fill:#A5AFD3;" d="M195.338,425.295c0,0.658-0.53,1.188-1.185,1.188c-0.653,0-1.184-0.529-1.184-1.188
						c0-0.652,0.531-1.182,1.184-1.182C194.808,424.113,195.338,424.643,195.338,425.295z"/>
				</g>
				<path style="fill:#2F3C4F;" d="M203.759,430.559c0,2.035-1.65,3.684-3.686,3.684c-2.034,0-3.683-1.648-3.683-3.684
					c0-2.035,1.648-3.684,3.683-3.684C202.108,426.875,203.759,428.523,203.759,430.559z"/>
				<path style="opacity:0.3;fill:#2F3C4F;" d="M185.189,428.83c2.589-1.096,5.539-1.73,8.361-1.596
					c3.619,0.17,6.535,1.705,9.938,2.715c6.053,1.797,13.117-0.338,18.715-3.352c-2.059-10.453-11.271-18.338-22.329-18.338
					c-12.567,0-22.758,10.189-22.758,22.76c0,1.16,0.088,2.303,0.256,3.416C179.44,431.994,182.193,430.1,185.189,428.83z"/>
			</g>
			<g>
				
					<ellipse transform="matrix(0.0124 -0.9999 0.9999 0.0124 -188.9407 670.7336)" style="fill:#2F3C4F;" cx="245.094" cy="431.02" rx="22.76" ry="22.759"/>
				<path style="opacity:0.2;fill:#A5AFD3;" d="M263.774,431.02c0,10.318-8.363,18.682-18.681,18.682
					c-10.316,0-18.682-8.363-18.682-18.682c0-10.316,8.366-18.684,18.682-18.684C255.411,412.336,263.774,420.703,263.774,431.02z"
					/>
				
					<ellipse transform="matrix(0.0125 -0.9999 0.9999 0.0125 -188.9541 670.7094)" style="fill:#DFE5FF;" cx="245.094" cy="431.02" rx="10.92" ry="10.919"/>
				<path style="fill:none;stroke:#003242;stroke-miterlimit:10;" d="M230.745,433.932c0,6.969,5.637,12.602,12.604,12.602"/>
				<path style="fill:none;stroke:#003242;stroke-miterlimit:10;" d="M259.884,433.369c1.727-6.752-2.342-13.605-9.09-15.33"/>
				<g>
					<path style="fill:#A5AFD3;" d="M238.583,432.533c0,0.652-0.53,1.182-1.186,1.182c-0.654,0-1.184-0.529-1.184-1.182
						c0-0.654,0.529-1.186,1.184-1.186C238.053,431.348,238.583,431.879,238.583,432.533z"/>
					<path style="fill:#A5AFD3;" d="M242.396,437.797c0,0.652-0.528,1.182-1.183,1.182s-1.184-0.529-1.184-1.182
						c0-0.656,0.529-1.188,1.184-1.188S242.396,437.141,242.396,437.797z"/>
					<path style="fill:#A5AFD3;" d="M249.634,438.059c0,0.654-0.529,1.184-1.185,1.184c-0.654,0-1.184-0.529-1.184-1.184
						s0.529-1.184,1.184-1.184C249.104,436.875,249.634,437.404,249.634,438.059z"/>
					<path style="fill:#A5AFD3;" d="M254.237,432.795c0,0.654-0.529,1.186-1.182,1.186c-0.656,0-1.187-0.531-1.187-1.186
						s0.53-1.184,1.187-1.184C253.708,431.611,254.237,432.141,254.237,432.795z"/>
					<path style="fill:#A5AFD3;" d="M252.659,426.35c0,0.652-0.53,1.182-1.185,1.182s-1.184-0.529-1.184-1.182
						c0-0.654,0.529-1.184,1.184-1.184S252.659,425.695,252.659,426.35z"/>
					<path style="fill:#A5AFD3;" d="M247.133,423.586c0,0.654-0.528,1.184-1.184,1.184c-0.652,0-1.182-0.529-1.182-1.184
						s0.529-1.184,1.182-1.184C246.604,422.402,247.133,422.932,247.133,423.586z"/>
					<path style="fill:#A5AFD3;" d="M240.556,425.295c0,0.658-0.531,1.188-1.186,1.188c-0.653,0-1.184-0.529-1.184-1.188
						c0-0.652,0.53-1.182,1.184-1.182C240.024,424.113,240.556,424.643,240.556,425.295z"/>
				</g>
				<path style="fill:#2F3C4F;" d="M248.977,430.559c0,2.035-1.65,3.684-3.687,3.684c-2.032,0-3.682-1.648-3.682-3.684
					c0-2.035,1.649-3.684,3.682-3.684C247.326,426.875,248.977,428.523,248.977,430.559z"/>
				<path style="opacity:0.3;fill:#2F3C4F;" d="M230.406,428.83c2.588-1.096,5.542-1.73,8.361-1.596
					c3.619,0.17,6.536,1.705,9.94,2.715c6.053,1.797,13.117-0.338,18.713-3.352c-2.057-10.453-11.272-18.338-22.327-18.338
					c-12.569,0-22.759,10.189-22.759,22.76c0,1.16,0.088,2.303,0.256,3.416C224.658,431.994,227.411,430.1,230.406,428.83z"/>
			</g>
		</g>
		<g>
			<g>
				<g>
					<rect x="17.323" y="311.734" style="fill:#A5AFD3;" width="266.115" height="108.086"/>
					<rect x="21.32" y="316.123" style="fill:#DFE5FF;" width="258.12" height="99.307"/>
					<path style="opacity:0.5;fill:#DFE5FF;" d="M266.899,400.736c-9.146-4.758-18.768-8.09-27.909-12.896
						c-8.838-4.645-17.078-10.863-26.214-14.727c-10.178-4.305-20.976-4.432-31.677-3.766c-11.37,0.709-22.65,2.572-33.913,4.449
						c-14.245,2.371-28.38,3.855-42.787,3.107c-14.142-0.734-28.447-3.088-41.842-8.605c-12.318-5.076-24.216-12.988-32.28-25.26
						c-4.251-6.467-7.081-13.641-8.957-21.182v93.572h258.12v-5.932C275.659,406.088,271.495,403.127,266.899,400.736z"/>
				</g>
				<g>
					<g>
						<line style="fill:none;stroke:#003242;stroke-miterlimit:10;" x1="34.596" y1="315.582" x2="34.596" y2="415.435"/>
						<line style="fill:none;stroke:#003242;stroke-miterlimit:10;" x1="60.089" y1="315.582" x2="60.089" y2="415.435"/>
						<line style="fill:none;stroke:#003242;stroke-miterlimit:10;" x1="85.583" y1="315.582" x2="85.583" y2="415.435"/>
						<line style="fill:none;stroke:#003242;stroke-miterlimit:10;" x1="111.076" y1="315.582" x2="111.076" y2="415.435"/>
						<line style="fill:none;stroke:#003242;stroke-miterlimit:10;" x1="136.57" y1="315.582" x2="136.57" y2="415.435"/>
						<line style="fill:none;stroke:#003242;stroke-miterlimit:10;" x1="162.063" y1="315.582" x2="162.063" y2="415.435"/>
						<line style="fill:none;stroke:#003242;stroke-miterlimit:10;" x1="187.557" y1="315.582" x2="187.557" y2="415.435"/>
						<line style="fill:none;stroke:#003242;stroke-miterlimit:10;" x1="213.049" y1="315.582" x2="213.049" y2="415.435"/>
						<line style="fill:none;stroke:#003242;stroke-miterlimit:10;" x1="238.543" y1="315.582" x2="238.543" y2="415.435"/>
						<line style="fill:none;stroke:#003242;stroke-miterlimit:10;" x1="264.036" y1="315.582" x2="264.036" y2="415.435"/>
					</g>
					<g>
						<line style="fill:none;stroke:#8C95AF;stroke-miterlimit:10;" x1="29.424" y1="315.582" x2="29.424" y2="415.435"/>
						<line style="fill:none;stroke:#8C95AF;stroke-miterlimit:10;" x1="54.812" y1="315.582" x2="54.812" y2="415.435"/>
						<line style="fill:none;stroke:#8C95AF;stroke-miterlimit:10;" x1="80.202" y1="315.582" x2="80.202" y2="415.435"/>
						<line style="fill:none;stroke:#8C95AF;stroke-miterlimit:10;" x1="105.59" y1="315.582" x2="105.59" y2="415.435"/>
						<line style="fill:none;stroke:#8C95AF;stroke-miterlimit:10;" x1="130.98" y1="315.582" x2="130.98" y2="415.435"/>
						<line style="fill:none;stroke:#8C95AF;stroke-miterlimit:10;" x1="156.369" y1="315.582" x2="156.369" y2="415.435"/>
						<line style="fill:none;stroke:#8C95AF;stroke-miterlimit:10;" x1="181.757" y1="315.582" x2="181.757" y2="415.435"/>
						<line style="fill:none;stroke:#8C95AF;stroke-miterlimit:10;" x1="207.147" y1="315.582" x2="207.147" y2="415.435"/>
						<line style="fill:none;stroke:#8C95AF;stroke-miterlimit:10;" x1="232.537" y1="315.582" x2="232.537" y2="415.435"/>
						<line style="fill:none;stroke:#8C95AF;stroke-miterlimit:10;" x1="257.925" y1="315.582" x2="257.925" y2="415.435"/>
					</g>
				</g>
			</g>
			<g>
				<rect x="20.265" y="412.139" style="fill:#F6F6F6;" width="259.176" height="4.115"/>
				<g>
					<rect x="156.444" y="412.139" style="fill:#FC4125;" width="12.533" height="4.115"/>
					<rect x="117.623" y="412.139" style="fill:#FC4125;" width="12.534" height="4.115"/>
					<rect x="137.035" y="412.139" style="fill:#FC4125;" width="12.533" height="4.115"/>
					<rect x="98.214" y="412.139" style="fill:#FC4125;" width="12.532" height="4.115"/>
					<rect x="39.981" y="412.139" style="fill:#FC4125;" width="12.532" height="4.115"/>
					<rect x="59.392" y="412.139" style="fill:#FC4125;" width="12.533" height="4.115"/>
					<rect x="78.804" y="412.139" style="fill:#FC4125;" width="12.532" height="4.115"/>
					<rect x="20.265" y="412.139" style="fill:#FC4125;" width="12.838" height="4.115"/>
					<rect x="253.501" y="412.139" style="fill:#FC4125;" width="12.529" height="4.115"/>
					<rect x="272.909" y="412.139" style="fill:#FC4125;" width="6.531" height="4.115"/>
					<rect x="214.678" y="412.139" style="fill:#FC4125;" width="12.533" height="4.115"/>
					<rect x="195.267" y="412.139" style="fill:#FC4125;" width="12.534" height="4.115"/>
					<rect x="234.088" y="412.139" style="fill:#FC4125;" width="12.534" height="4.115"/>
					<rect x="175.857" y="412.139" style="fill:#FC4125;" width="12.531" height="4.115"/>
				</g>
			</g>
		</g>
		<g>
			<g>
				<g>
					<path style="fill:#FC4125;" d="M431.233,373.773c0,0,38.678,9.531,41.834,11.857c3.158,2.324,5.264,4.65,5.527,10.693
						c0.264,6.047,0.789,21.391,0.789,21.391h-57.885L431.233,373.773z"/>
					<line style="fill:none;stroke:#003242;stroke-miterlimit:10;" x1="436.759" y1="375.088" x2="436.759" y2="417.715"/>
					<path style="fill:#D83625;" d="M440.042,382.193c0,0,28.221,6.955,30.527,8.652c2.303,1.697,3.838,3.393,4.029,7.803
						c0.193,4.41,0.576,15.607,0.576,15.607l-35.258-0.488L440.042,382.193z"/>
					<polygon style="opacity:0.5;fill:#F6F6F6;" points="440.604,376.945 466.161,383.94 466.698,386.09 439.796,378.828 					"/>
				</g>
				<g>
					<path style="fill:#FC4125;" d="M383,329.167c0,0,33.827,10.466,42.913,23.825c8.947,13.156,9.471,23.67,9.998,34.732
						c0.525,11.059-1.051,29.99-1.051,29.99l-52.281-0.023L383,329.167z"/>
					<line style="fill:none;stroke:#003242;stroke-miterlimit:10;" x1="392.75" y1="342.334" x2="412.29" y2="342.234"/>
					<g>
						<path style="fill:#2F3C4F;" d="M427.755,375.736c-0.828-8.012-4.576-18.191-12.592-21.994
							c-3.215-1.525-14.857-3.471-21.463-1.934v27.852h33.863C427.872,378.772,427.944,377.527,427.755,375.736z"/>
						<path style="fill:#A5AFD3;" d="M425.8,374.699c-0.752-7.24-4.139-16.441-11.383-19.877c-2.902-1.379-13.43-3.137-19.398-1.748
							v25.172h30.607C425.903,377.441,425.97,376.318,425.8,374.699z"/>
						<path style="opacity:0.6;fill:#F6F6F6;" d="M424.165,376.172c-2.721-12.578-12.307-21.045-19.572-21.967
							c4.08,4.857,6.676,12.935,8.301,21.967H424.165z"/>
						
							<line style="fill:none;stroke:#F6F6F6;stroke-width:0.5;stroke-miterlimit:10;" x1="397.847" y1="376.172" x2="409.538" y2="358.26"/>
						
							<line style="fill:none;stroke:#F6F6F6;stroke-width:0.5;stroke-miterlimit:10;" x1="402.185" y1="375.228" x2="413.874" y2="357.316"/>
						
							<line style="fill:none;stroke:#F6F6F6;stroke-width:0.5;stroke-miterlimit:10;" x1="405.767" y1="375.795" x2="413.874" y2="362.221"/>
					</g>
					<path style="opacity:0.5;fill:#F6F6F6;" d="M416.71,346.408c0,0,6.051,4.209,8.682,8.947c2.633,4.736,4.736,8.945,6.053,13.682
						c1.316,4.736,2.104,10.787,2.104,10.787l-2.629,0.264c0,0-2.105-15.787-5.527-21.576
						C421.972,352.723,416.71,346.408,416.71,346.408z"/>
					<path style="fill:#D83625;" d="M425.2,413.334c-4.754-1.639-9.736-2.813-14.416-4.629
						c-8.853-3.438-24.533-20.148-24.533-20.148l-0.49,28.889l45.428,0.389l0.207-2.328
						C429.331,414.777,427.269,414.049,425.2,413.334z"/>
					<polygon style="opacity:0.5;fill:#F6F6F6;" points="390.903,334.203 391.147,338.611 408.147,340.658 					"/>
					<g>
						<g>
							<rect x="421.337" y="381.629" style="fill:#2F3C4F;" width="6.838" height="7.631"/>
							<rect x="425.81" y="380.84" style="fill:#8C95AF;" width="2.365" height="5.789"/>
							<path style="fill:#2F3C4F;" d="M431.083,378.203c0,2.039-1.652,3.69-3.691,3.69l0,0c-2.035,0-3.69-1.65-3.69-3.69v-17.881
								c0-2.037,1.654-3.689,3.69-3.689l0,0c2.039,0,3.691,1.652,3.691,3.689V378.203z"/>
						</g>
						<line style="fill:none;stroke:#8C95AF;stroke-miterlimit:10;" x1="427.058" y1="358.807" x2="427.058" y2="377.123"/>
					</g>
					
						<line style="fill:none;stroke:#003242;stroke-width:0.5;stroke-miterlimit:10;" x1="391.714" y1="342.199" x2="391.714" y2="417.451"/>
				</g>
				<g>
					<g>
						<path style="fill:#FC4125;" d="M291.991,317.728c0,0,76.83-0.789,82.881,1.578c6.055,2.369,8.947,4.475,8.947,12.893
							c0,6.402,0.525,85.516,0.525,85.516l-92.619-0.527L291.991,317.728z"/>
						<polyline style="fill:none;stroke:#003242;stroke-miterlimit:10;" points="308.042,317.465 308.042,342.725 382.634,342.725 
													"/>
						<path style="fill:#D83625;" d="M381.235,323.053c-0.373,3.912-0.664,7.828-1.037,11.754
							c-0.582,6.072-1.35,12.125-2.168,18.168c-1.305,9.592-2.52,19.557-5.647,28.762c-2.603,7.672-6.891,14.877-14.414,18.529
							c-6.717,3.262-14.387,4.629-21.822,4.705c-7.684,0.076-15.754-1.061-22.664-4.6c-7.111-3.643-11.742-9.549-13.182-17.486
							c-1.701-9.373-0.133-18.803,0.223-28.213c0.463-12.332,0.618-24.838,0.976-37.172c-5.484,0.033-10.75,0.125-10.75,0.125
							l0.976,99.563l92.619,0.527c0,0-0.525-79.113-0.525-85.516C383.819,327.65,382.968,324.953,381.235,323.053z"/>
						<path style="opacity:0.5;fill:#F6F6F6;" d="M342.384,321.486c-7.328,0-14.455-0.469-21.693-0.469
							c-2.361,0-6.768,0.414-11.07,0.603v2.934c1.592-0.279,3.172-0.57,4.744-0.725c7.816-0.768,16.422,0.389,24.311-0.002
							c13.42-0.666,28.346-1.4,39.865,4.715C371.216,319.365,353.733,321.486,342.384,321.486z"/>
					</g>
					<g>
						<polygon style="fill:#F6F6F6;" points="365.663,356.242 306.464,379.035 306.856,382.98 365.663,360.111 						"/>
						<polygon style="fill:#F6F6F6;" points="365.663,372.766 324.222,388.719 324.517,391.666 365.663,375.664 						"/>
						<polygon style="fill:#F6F6F6;" points="365.663,364.502 314.583,384.168 314.936,387.719 365.663,367.992 						"/>
					</g>
				</g>
				<g>
					<path style="fill:#DFE5FF;" d="M475.479,398.086c1.248,0.852,2.537,1.537,3.85,2.137c-0.022-0.785-0.041-1.504-0.059-2.127
						c-0.195-6.381-1.758-8.834-4.096-11.287c-0.639-0.674-3.246-1.914-6.697-3.361
						C468.759,389.994,471.138,395.117,475.479,398.086z"/>
					<path style="fill:#FF8800;" d="M476.188,396.316c0.998,0.711,2.031,1.277,3.082,1.779c-0.019-0.652-0.035-1.252-0.053-1.773
						c-0.154-5.313-1.402-7.359-3.273-9.4c-0.512-0.561-2.598-1.594-5.359-2.799C470.808,389.574,472.714,393.844,476.188,396.316z"
						/>
				</g>
				<g>
					<line style="fill:none;stroke:#003242;stroke-miterlimit:10;" x1="386.712" y1="330.885" x2="386.712" y2="416.398"/>
				</g>
			</g>
			<rect x="365.274" y="417.184" style="fill:#2F3C4F;" width="69.951" height="5.49"/>
		</g>
		<g>
			<g>
				<g>
					<rect x="385.69" y="420.445" style="fill:#DFE5FF;" width="49.535" height="23.943"/>
					<rect x="372.614" y="420.445" style="fill:#A5AFD3;" width="13.076" height="23.943"/>
					<linearGradient id="SVGID_1_" gradientUnits="userSpaceOnUse" x1="385.6904" y1="438.7393" x2="435.2256" y2="438.7393">
						<stop  offset="0" style="stop-color:#C1D7F8"/>
						<stop  offset="0.7964" style="stop-color:#C7E1F7"/>
						<stop  offset="1" style="stop-color:#C9E5F6"/>
					</linearGradient>
					<rect x="385.69" y="435.512" style="opacity:0.3;fill:url(#SVGID_1_);" width="49.535" height="6.455"/>
					<line style="fill:none;stroke:#003242;stroke-miterlimit:10;" x1="434.589" y1="423.473" x2="387.946" y2="423.473"/>
				</g>
				<path style="fill:#2F3C4F;" d="M435.226,444.355c0,0.836-0.682,1.512-1.521,1.512H384.02c-0.838,0-1.519-0.676-1.519-1.512l0,0
					c0-0.838,0.682-1.514,1.519-1.514h49.684C434.544,442.842,435.226,443.518,435.226,444.355L435.226,444.355z"/>
			</g>
			<g>
				<g>
					<path style="fill:#2F3C4F;" d="M464.679,432.02c0,12.57-10.191,22.76-22.762,22.76c-12.568,0-22.758-10.189-22.758-22.76
						s10.189-22.76,22.758-22.76C454.487,409.26,464.679,419.449,464.679,432.02z"/>
					<path style="opacity:0.2;fill:#A5AFD3;" d="M460.601,432.02c0,10.318-8.365,18.682-18.684,18.682
						c-10.315,0-18.682-8.363-18.682-18.682c0-10.316,8.367-18.684,18.682-18.684C452.235,413.336,460.601,421.703,460.601,432.02z"
						/>
					<path style="fill:#DFE5FF;" d="M452.839,432.02c0,6.031-4.891,10.92-10.922,10.92c-6.027,0-10.92-4.889-10.92-10.92
						c0-6.029,4.892-10.92,10.92-10.92C447.948,421.1,452.839,425.99,452.839,432.02z"/>
					<path style="fill:none;stroke:#003242;stroke-miterlimit:10;" d="M427.569,434.932c0,6.969,5.637,12.602,12.604,12.602"/>
					<path style="fill:none;stroke:#003242;stroke-miterlimit:10;" d="M456.708,434.369c1.727-6.752-2.344-13.605-9.09-15.33"/>
					<g>
						<path style="fill:#A5AFD3;" d="M435.405,433.533c0,0.652-0.531,1.182-1.184,1.182c-0.654,0-1.184-0.529-1.184-1.182
							c0-0.654,0.529-1.186,1.184-1.186C434.874,432.348,435.405,432.879,435.405,433.533z"/>
						<path style="fill:#A5AFD3;" d="M439.22,438.797c0,0.652-0.529,1.182-1.182,1.182c-0.654,0-1.186-0.529-1.186-1.182
							c0-0.656,0.531-1.188,1.186-1.188C438.69,437.609,439.22,438.141,439.22,438.797z"/>
						<path style="fill:#A5AFD3;" d="M446.458,439.059c0,0.654-0.531,1.184-1.184,1.184c-0.656,0-1.188-0.529-1.188-1.184
							s0.531-1.184,1.188-1.184C445.927,437.875,446.458,438.404,446.458,439.059z"/>
						<path style="fill:#A5AFD3;" d="M451.063,433.795c0,0.654-0.531,1.186-1.187,1.186c-0.652,0-1.184-0.531-1.184-1.186
							s0.531-1.184,1.184-1.184C450.532,432.611,451.063,433.141,451.063,433.795z"/>
						<path style="fill:#A5AFD3;" d="M449.483,427.35c0,0.652-0.531,1.182-1.186,1.182c-0.652,0-1.184-0.529-1.184-1.182
							c0-0.654,0.531-1.184,1.184-1.184C448.952,426.166,449.483,426.695,449.483,427.35z"/>
						<path style="fill:#A5AFD3;" d="M443.958,424.586c0,0.654-0.529,1.184-1.184,1.184s-1.185-0.529-1.185-1.184
							s0.531-1.184,1.185-1.184S443.958,423.932,443.958,424.586z"/>
						<path style="fill:#A5AFD3;" d="M437.38,426.295c0,0.658-0.531,1.188-1.186,1.188c-0.654,0-1.182-0.529-1.182-1.188
							c0-0.652,0.527-1.182,1.182-1.182C436.849,425.113,437.38,425.643,437.38,426.295z"/>
					</g>
					<path style="fill:#2F3C4F;" d="M445.8,431.559c0,2.035-1.65,3.684-3.684,3.684c-2.035,0-3.685-1.648-3.685-3.684
						c0-2.035,1.65-3.684,3.685-3.684C444.149,427.875,445.8,429.523,445.8,431.559z"/>
					<path style="opacity:0.3;fill:#2F3C4F;" d="M427.231,429.83c2.59-1.096,5.541-1.73,8.361-1.596
						c3.619,0.17,6.535,1.705,9.939,2.715c6.053,1.797,13.115-0.338,18.715-3.352c-2.059-10.453-11.273-18.338-22.33-18.338
						c-12.568,0-22.758,10.189-22.758,22.76c0,1.16,0.088,2.303,0.256,3.416C421.483,432.994,424.237,431.1,427.231,429.83z"/>
				</g>
				<g>
					<path style="fill:#FC4125;" d="M471.433,427.172c-4.646-14.648-16.105-25.018-29.516-25.018
						c-13.406,0-24.863,10.369-29.514,25.018H471.433z"/>
					<path style="opacity:0.5;fill:#F6F6F6;" d="M450.013,406.25c8.563,2.215,15.664,8.828,20.227,17.633
						c-5.229-12.887-15.941-21.729-28.322-21.729c-12.492,0-23.289,9.004-28.465,22.08
						C421.243,410.266,436.718,402.81,450.013,406.25z"/>
					<path style="fill:none;stroke:#003242;stroke-miterlimit:10;" d="M428.419,417.547c7.518-9.469,20.725-10.59,29.531-2.506"/>
				</g>
			</g>
			<g>
				<g>
					<path style="fill:#2F3C4F;" d="M331.811,424.752h-58.953c-0.59,0-1.164,0.039-1.723,0.103v13.512
						c0.559,0.064,1.133,0.104,1.723,0.104h58.953c5.559,0,10.065-2.984,10.065-6.664v-0.389
						C341.876,427.736,337.37,424.752,331.811,424.752z"/>
					<rect x="275.976" y="424.752" style="opacity:0.2;fill:#A5AFD3;" width="3.498" height="13.986"/>
					<rect x="283.776" y="424.752" style="opacity:0.2;fill:#A5AFD3;" width="3.496" height="13.986"/>
				</g>
				<g>
					<path style="fill:#DFE5FF;" d="M382.769,443.734c0,4.607-5.158,8.34-11.521,8.34h-68.932c-6.361,0-11.52-3.732-11.52-8.34
						v-17.785c0-4.605,5.158-8.34,11.52-8.34h68.932c6.363,0,11.521,3.734,11.521,8.34V443.734z"/>
					<rect x="297.03" y="420.801" style="opacity:0.6;fill:#F6F6F6;" width="78.566" height="3.191"/>
					
						<linearGradient id="SVGID_00000016753923039228164550000005825006940483004058_" gradientUnits="userSpaceOnUse" x1="290.7959" y1="437.2959" x2="382.7686" y2="437.2959">
						<stop  offset="0" style="stop-color:#C1D7F8"/>
						<stop  offset="0.7964" style="stop-color:#C7E1F7"/>
						<stop  offset="1" style="stop-color:#C9E5F6"/>
					</linearGradient>
					<path style="opacity:0.5;fill:url(#SVGID_00000016753923039228164550000005825006940483004058_);" d="M375.642,442.684
						c-13.541-2.465-26.537-7.34-40.488-6.484c-6.594,0.404-12.988,2.037-19.549,2.699c-5.045,0.508-10.541,0.43-15-2.395
						c-4.195-2.658-8.768-8.621-8.779-13.986c-0.656,1.049-1.029,2.207-1.029,3.432v17.785c0,4.607,5.158,8.34,11.52,8.34h68.932
						c6.363,0,11.521-3.732,11.521-8.34v-0.014C380.429,443.498,378.081,443.125,375.642,442.684z"/>
					<line style="fill:none;stroke:#003242;stroke-miterlimit:10;" x1="293.911" y1="422.397" x2="293.911" y2="447.926"/>
					<line style="fill:none;stroke:#003242;stroke-miterlimit:10;" x1="380.585" y1="422.717" x2="380.585" y2="446.967"/>
					<rect x="309.189" y="417.609" style="fill:#A5AFD3;" width="4.363" height="34.783"/>
					<rect x="361.255" y="417.289" style="fill:#A5AFD3;" width="4.363" height="34.785"/>
					
						<linearGradient id="SVGID_00000068678338006800598590000008818178016196614069_" gradientUnits="userSpaceOnUse" x1="298.0615" y1="446.8311" x2="375.2842" y2="446.8311">
						<stop  offset="0" style="stop-color:#C1D7F8"/>
						<stop  offset="0.7964" style="stop-color:#C7E1F7"/>
						<stop  offset="1" style="stop-color:#C9E5F6"/>
					</linearGradient>
					<path style="opacity:0.3;fill:url(#SVGID_00000068678338006800598590000008818178016196614069_);" d="M298.061,445.092
						c3.291,2.104,8.711,3.479,14.842,3.479h47.539c6.131,0,11.549-1.375,14.842-3.479H298.061z"/>
					
						<line style="fill:none;stroke:#003242;stroke-width:0.5;stroke-miterlimit:10;" x1="311.528" y1="417.291" x2="311.528" y2="451.994"/>
					
						<line style="fill:none;stroke:#003242;stroke-width:0.5;stroke-miterlimit:10;" x1="363.438" y1="417.291" x2="363.438" y2="451.994"/>
				</g>
			</g>
		</g>
	</g>
	<g>
		<g>
			<g>
				<path style="fill:#2F3C4F;" d="M99.271,265.516c0,3.207-3.003,5.807-6.707,5.807h-9.392c-3.704,0-6.707-2.6-6.707-5.807v-36.723
					c0-3.206,3.003-5.808,6.707-5.808h9.392c3.704,0,6.707,2.602,6.707,5.808V265.516z"/>
				<path style="fill:#2F3C4F;" d="M211.089,265.516c0,3.207-3.001,5.807-6.704,5.807h-9.391c-3.707,0-6.708-2.6-6.708-5.807
					v-36.723c0-3.206,3.001-5.808,6.708-5.808h9.391c3.703,0,6.704,2.602,6.704,5.808V265.516z"/>
			</g>
			<g style="opacity:0.3;">
				<path style="fill:#2F3C4F;" d="M86.979,256.781c4.17,0.787,8.23,1.31,12.291,1.521v-29.51c0-3.206-3.003-5.808-6.707-5.808
					h-9.392c-3.704,0-6.707,2.602-6.707,5.808v28.527C79.828,256.301,83.46,256.115,86.979,256.781z"/>
				<path style="fill:#2F3C4F;" d="M193.876,256.904c3.294-0.529,6.573-0.314,9.887-0.088c2.446,0.166,4.887,0.387,7.326,0.627
					v-28.65c0-3.206-3.001-5.808-6.704-5.808h-9.391c-3.707,0-6.708,2.602-6.708,5.808v29.85
					C190.077,257.844,191.942,257.215,193.876,256.904z"/>
			</g>
		</g>
		<rect x="70.412" y="60.042" style="fill:#A5AFD3;" width="146.201" height="172.299"/>
		<rect x="74.53" y="246.304" style="fill:#8C95AF;" width="139.701" height="8.286"/>
		<g>
			<g>
				<path style="fill:#D83625;" d="M211.947,171.915c0,11.646-8.232,21.087-18.391,21.087H92.406
					c-10.158,0-18.392-9.441-18.392-21.087V83.884c0-11.646,8.233-21.087,18.392-21.087h101.15c10.158,0,18.391,9.441,18.391,21.087
					V171.915z"/>
				<polyline style="fill:none;stroke:#003242;stroke-miterlimit:10;" points="94.475,63.717 99.533,76.592 182.75,76.592 
					191.486,63.26 				"/>
			</g>
			<path style="fill:#2F3C4F;" d="M210.198,181.118c0,9.853-11.105,16.629-20.377,16.629h-92.33
				c-9.271,0-19.492-8.845-19.492-18.698l2.548-77.44c0-9.852,7.673-14.033,16.944-14.033l79.475,0.186
				c7.287,0.174,29.644-2.549,29.644,17.654L210.198,181.118z"/>
		</g>
		<rect x="67.143" y="210.049" style="fill:#2F3C4F;" width="151.677" height="6.64"/>
		<path style="fill:#FC4125;" d="M218.669,212.68c0.399-1.656,0.631-3.383,0.631-5.171v-14.487c0-11.431-8.649-20.696-19.32-20.696
			H85.982c-10.669,0-19.321,9.265-19.321,20.696v14.487c0,1.788,0.234,3.516,0.634,5.171H218.669z"/>
		<g>
			<g>
				<g>
					<rect x="62.603" y="142.656" style="fill:#DFE5FF;" width="21.041" height="4.14"/>
					<path style="fill:#2F3C4F;" d="M68.121,111.745c-0.79-0.304-1.645-0.479-2.541-0.479c-3.931,0-7.117,3.187-7.117,7.118v24.399
						c0,3.931,3.187,7.117,7.117,7.117c0.896,0,1.751-0.173,2.541-0.476V111.745z"/>
				</g>
				<rect x="79.849" y="139.552" style="fill:#1E2935;" width="6.911" height="10.002"/>
				<line style="fill:none;stroke:#8C95AF;stroke-miterlimit:10;" x1="63.981" y1="115.062" x2="63.981" y2="141.277"/>
			</g>
			<g>
				<g>
					<rect x="204.076" y="143.693" style="fill:#DFE5FF;" width="21.043" height="4.138"/>
					<path style="fill:#2F3C4F;" d="M219.6,111.745c0.789-0.304,1.645-0.479,2.541-0.479c3.93,0,7.117,3.187,7.117,7.118v24.399
						c0,3.931-3.188,7.117-7.117,7.117c-0.896,0-1.752-0.173-2.541-0.476V111.745z"/>
				</g>
				<rect x="202.35" y="139.552" style="fill:#1E2935;" width="5.87" height="10.002"/>
				<line style="fill:none;stroke:#8C95AF;stroke-miterlimit:10;" x1="224.081" y1="116.441" x2="224.081" y2="142.656"/>
			</g>
		</g>
		<g>
			<g>
				<path style="fill:#DFE5FF;" d="M66.706,193.021c0,0,14.66-0.003,19.489-0.003c4.829,0,7.08,0.428,8.622-1.209
					c1.183-1.252,0.157-4.375-0.688-5.518c-3.022-4.075-16.902-11.556-16.902-11.556s-2.76,0.346-5.865,4.485
					c-3.104,4.139-4.482,7.243-4.827,8.967C66.188,189.914,66.706,193.021,66.706,193.021z"/>
				<path style="fill:#F6F6F6;" d="M66.188,190.085c0,0,12.907,0.013,16.972,0.013c4.065,0,5.961,0.327,7.261-0.924
					c0.994-0.959,0.131-3.349-0.582-4.221c-2.543-3.118-15.254-9.009-15.254-9.009s-1.353,0.392-3.908,3.602
					C66.537,184.739,66.188,190.085,66.188,190.085z"/>
				<path style="fill:#FF8800;" d="M71.387,178.689c-0.228,0.262-0.462,0.543-0.711,0.855c-4.139,5.194-4.488,10.54-4.488,10.54
					s1.68,0.003,4.015,0.003C69.683,186.168,70.232,182.366,71.387,178.689z"/>
				<path style="fill:#DFE5FF;" d="M71.707,181.911c-1.197,0.842-1.397,4.69-0.174,6.02c0.692,0.747,5.009,0.975,6.125,0.257
					c1.279-0.82,1.393-5.29,0.343-6.208C78.001,181.98,72.954,181.036,71.707,181.911z"/>
				<path style="fill:#DFE5FF;" d="M80.427,183.226c-0.899,0.636-1.051,3.531-0.129,4.531c0.52,0.561,3.767,0.732,4.606,0.194
					c0.964-0.616,1.047-3.98,0.258-4.671C85.162,183.28,81.365,182.57,80.427,183.226z"/>
			</g>
			<g>
				<path style="fill:#DFE5FF;" d="M219.256,193.021c0,0-14.661-0.003-19.488-0.003c-4.829,0-7.08,0.428-8.624-1.209
					c-1.182-1.252-0.158-4.375,0.69-5.518c3.021-4.075,16.902-11.556,16.902-11.556s2.761,0.346,5.864,4.485
					c3.104,4.139,4.482,7.243,4.828,8.967C219.774,189.914,219.256,193.021,219.256,193.021z"/>
				<path style="fill:#F6F6F6;" d="M219.772,190.085c0,0-12.907,0.013-16.972,0.013c-4.064,0-5.959,0.327-7.257-0.924
					c-0.995-0.959-0.135-3.349,0.578-4.221c2.546-3.118,15.256-9.009,15.256-9.009s1.354,0.392,3.91,3.602
					C219.423,184.739,219.772,190.085,219.772,190.085z"/>
				<path style="fill:#FF8800;" d="M214.577,178.689c0.227,0.262,0.46,0.543,0.711,0.855c4.135,5.194,4.484,10.54,4.484,10.54
					s-1.677,0.003-4.013,0.003C216.278,186.168,215.73,182.366,214.577,178.689z"/>
				<path style="fill:#DFE5FF;" d="M214.255,181.911c1.196,0.842,1.398,4.69,0.173,6.02c-0.689,0.747-5.009,0.975-6.123,0.257
					c-1.281-0.82-1.392-5.29-0.346-6.208C207.959,181.98,213.008,181.036,214.255,181.911z"/>
				<path style="fill:#DFE5FF;" d="M205.534,183.226c0.901,0.636,1.052,3.531,0.13,4.531c-0.519,0.561-3.766,0.732-4.604,0.194
					c-0.965-0.616-1.05-3.98-0.261-4.671C200.799,183.28,204.595,182.57,205.534,183.226z"/>
			</g>
		</g>
		<g>
			<g>
				<path style="fill:#FC4125;" d="M203.69,148.075l-2.366-43.436c0-7.726-4.685-11.135-13.383-11.135h-86.626
					c-8.698,0-14.015,2.029-14.015,9.755l-1.734,56.931c-0.132,2.975-0.128,5.37,0.066,6.877c0.427,4.51,3.69,7.757,7.355,10.672
					c6.643,5.279,20.979,15.175,20.979,15.175l66.666-0.921c0,0,23.058-22.131,23.058-26.111v-0.621
					C203.987,162.743,203.969,155.81,203.69,148.075z"/>
				<g>
					<polygon style="fill:#49596B;" points="95.94,100.773 89.402,141.536 197.909,141.536 193.313,100.27 					"/>
					<polygon style="fill:#A5AFD3;" points="98.408,103.995 91.819,139.376 195.494,139.376 191.101,103.151 					"/>
					<path style="opacity:0.3;fill:#F6F6F6;" d="M164.672,103.392l-16.96,0.155c5.429,5.339,11.908,9.524,18.317,13.609
						c7.389,4.706,14.452,9.742,21.31,15.195c2.755,2.188,5.469,4.435,8.121,6.748l-2.483-20.483
						C183.7,113.28,173.516,109.418,164.672,103.392z"/>
					<path style="opacity:0.3;fill:#F6F6F6;" d="M144.307,121.085c-3.756-2.136-7.534-3.996-11.575-5.508
						c-3.437-1.287-6.92-2.53-10.203-4.182c-3.67-1.847-7.175-4.249-9.279-7.535l-14.715,0.134
						c2.302,4.767,7.437,8.885,10.784,12.13c6.443,6.253,14.884,8.995,21.865,14.431c3.418,2.661,6.541,5.632,9.439,8.82h27.547
						C161.008,132.371,153.145,126.118,144.307,121.085z"/>
					<g>
						<line style="fill:none;stroke:#F6F6F6;stroke-miterlimit:10;" x1="110.986" y1="109.456" x2="140.221" y2="132.48"/>
						<line style="fill:none;stroke:#F6F6F6;stroke-miterlimit:10;" x1="128.837" y1="116.441" x2="154.189" y2="134.549"/>
						<line style="fill:none;stroke:#F6F6F6;stroke-miterlimit:10;" x1="158.848" y1="107.644" x2="188.081" y2="130.67"/>
					</g>
				</g>
			</g>
			<path style="fill:#D83625;" d="M106.135,166.239L85.76,145.675l-5.213,27.163c0,0,15.029,6.885,18.775,11.277
				c3.747,4.388,11.922,17.872,11.922,17.872s-5.79-20.069-5.79-24.146C105.454,173.766,106.135,166.239,106.135,166.239z"/>
			<path style="fill:#D83625;" d="M182.303,168.871l21.388-21.73l1.726,25.525c0,0-13.879,5.175-17.248,10.003
				c-3.366,4.829-6.555,13.798-6.555,13.798s3.479-11.038,3.479-15.522C185.092,176.462,182.303,168.871,182.303,168.871z"/>
			<path style="opacity:0.5;fill:#F6F6F6;" d="M96.115,146.753c0,0,32.364-0.647,44.616-0.992
				c12.252-0.344,51.156,2.031,51.156,2.031l-10.931,9.889l-75.473-1.04C105.484,156.641,97.107,145.717,96.115,146.753z"/>
			<polyline style="fill:none;stroke:#003242;stroke-miterlimit:10;" points="91.929,146.796 105.037,160.559 181.959,161.543 
				197.482,147.78 			"/>
		</g>
		<g>
			<line style="fill:none;stroke:#003242;stroke-miterlimit:10;" x1="68.473" y1="199.744" x2="95.379" y2="199.4"/>
			<line style="fill:none;stroke:#003242;stroke-miterlimit:10;" x1="190.583" y1="199.744" x2="217.489" y2="199.4"/>
		</g>
		<g>
			<path style="fill:#FC4125;" d="M67.085,216.127v21.639c0,6.433,5.821,11.648,13.002,11.648h125.787
				c7.183,0,13.002-5.216,13.002-11.648v-21.639H67.085z"/>
			<path style="fill:#D83625;" d="M209.544,242.375c-7.822,0.915-15.479,0.611-23.179-1.036c-8.141-1.74-16.19-4.338-24.524-5.031
				c-16.453-1.366-32.479,2.996-48.828,3.726c-11.103,0.494-23.296-0.449-33.249-5.828c-5.859-3.17-10.102-7.732-12.423-13.331
				v16.891c0,6.433,5.819,11.648,12.999,11.648h125.79c5.939,0,10.94-3.571,12.492-8.449
				C215.578,241.555,212.53,242.025,209.544,242.375z"/>
			<g>
				<path style="fill:none;stroke:#003242;stroke-miterlimit:10;" d="M75.313,221.054c0,0,2.607,9.535,5.442,10.42
					c2.835,0.885,28.996,1.213,28.996,1.213l-4.177-11.384L75.313,221.054z"/>
				<path style="fill:none;stroke:#003242;stroke-miterlimit:10;" d="M210.647,221.054c0,0-2.608,9.535-5.44,10.42
					c-2.837,0.885-28.998,1.213-28.998,1.213l4.174-11.384L210.647,221.054z"/>
			</g>
			<g>
				<g>
					<path style="fill:#2F3C4F;" d="M84.011,242.259c0,2.764-2.26,5.003-5.045,5.003c-2.786,0-5.045-2.239-5.045-5.003
						c0-2.763,2.259-5.003,5.045-5.003C81.751,237.256,84.011,239.496,84.011,242.259z"/>
					<path style="fill:#F6F6F6;" d="M82.791,242.259c0,2.095-1.712,3.793-3.825,3.793c-2.112,0-3.826-1.698-3.826-3.793
						c0-2.097,1.714-3.794,3.826-3.794C81.079,238.465,82.791,240.162,82.791,242.259z"/>
				</g>
				<g>
					<path style="fill:#2F3C4F;" d="M212.042,241.569c0,2.763-2.261,5.002-5.046,5.002s-5.045-2.24-5.045-5.002
						c0-2.762,2.26-5.002,5.045-5.002S212.042,238.807,212.042,241.569z"/>
					<path style="fill:#F6F6F6;" d="M210.823,241.569c0,2.096-1.713,3.793-3.827,3.793c-2.113,0-3.825-1.698-3.825-3.793
						c0-2.095,1.712-3.794,3.825-3.794C209.11,237.775,210.823,239.474,210.823,241.569z"/>
				</g>
			</g>
			<g>
				<rect x="123.539" y="233.721" style="fill:#2F3C4F;" width="38.883" height="16.211"/>
				<rect x="125.146" y="236.762" style="fill:#F6F6F6;" width="35.667" height="12.835"/>
			</g>
		</g>
		<g>
			<g>
				<path style="fill:#49596B;" d="M116.263,225.096h55.597c8.142-14.278,15.291-37.021,15.035-41.505
					c-0.338-5.932-5.797-19.29-5.797-19.29l-77.406-0.081c0,0-5.539,9.737-4.503,21.217
					C99.898,193.311,108.76,213.094,116.263,225.096z"/>
				<path style="fill:#2F3C4F;" d="M120.383,218.835h47.023c6.886-11.709,12.933-30.362,12.716-34.038
					c-0.285-4.864-4.716-15.58-4.716-15.58l-65.656-0.306c0,0-4.684,7.985-3.809,17.398
					C106.542,192.769,114.037,208.994,120.383,218.835z"/>
				<g>
					<path style="fill:#49596B;" d="M176.438,176.566c0,0.673-0.539,1.216-1.205,1.216h-64.506c-0.667,0-1.206-0.543-1.206-1.216
						l0,0c0-0.673,0.539-1.216,1.206-1.216h64.506C175.899,175.35,176.438,175.893,176.438,176.566L176.438,176.566z"/>
					<path style="fill:#49596B;" d="M176.438,185.09c0,0.671-0.539,1.217-1.205,1.217h-64.506c-0.667,0-1.206-0.546-1.206-1.217l0,0
						c0-0.672,0.539-1.217,1.206-1.217h64.506C175.899,183.873,176.438,184.418,176.438,185.09L176.438,185.09z"/>
					<path style="fill:#49596B;" d="M174.48,193.614c0,0.671-0.508,1.219-1.135,1.219h-60.731c-0.626,0-1.135-0.548-1.135-1.219l0,0
						c0-0.671,0.509-1.218,1.135-1.218h60.731C173.973,192.396,174.48,192.943,174.48,193.614L174.48,193.614z"/>
					<path style="fill:#49596B;" d="M171.265,202.137c0,0.673-0.455,1.219-1.021,1.219h-54.528c-0.564,0-1.021-0.546-1.021-1.219
						l0,0c0-0.671,0.457-1.217,1.021-1.217h54.528C170.81,200.92,171.265,201.465,171.265,202.137L171.265,202.137z"/>
					<path style="fill:#49596B;" d="M167.472,210.661c0,0.673-0.395,1.219-0.884,1.219h-47.215c-0.488,0-0.884-0.546-0.884-1.219
						l0,0c0-0.671,0.396-1.218,0.884-1.218h47.215C167.076,209.442,167.472,209.989,167.472,210.661L167.472,210.661z"/>
				</g>
			</g>
			<line style="fill:none;stroke:#8C95AF;stroke-miterlimit:10;" x1="106.332" y1="167.148" x2="178.771" y2="167.148"/>
		</g>
		<g>
			<polygon style="fill:#49596B;" points="108.548,100.644 119.326,111.514 168.76,111.514 180.279,101.006 			"/>
			<path style="fill:#2F3C4F;" d="M170.068,106.048c0,1.445-1.172,2.617-2.618,2.617h-46.073c-1.445,0-2.616-1.171-2.616-2.617l0,0
				c0-1.445,1.171-2.617,2.616-2.617h46.073C168.896,103.431,170.068,104.603,170.068,106.048L170.068,106.048z"/>
			<g>
				<g>
					<path style="fill:#DFE5FF;" d="M150.751,103.394c0,3.233-2.622,5.855-5.857,5.855c-3.233,0-5.855-2.622-5.855-5.855
						c0-3.236,2.621-5.855,5.855-5.855C148.129,97.538,150.751,100.158,150.751,103.394z"/>
					<path style="fill:#F6F6F6;" d="M148.694,103.395c0,2.097-1.7,3.8-3.8,3.8c-2.099,0-3.8-1.704-3.8-3.8
						c0-2.1,1.701-3.801,3.8-3.801C146.994,99.594,148.694,101.294,148.694,103.395z"/>
					<path style="fill:none;stroke:#003242;stroke-miterlimit:10;" d="M149.653,103.394c0,2.627-2.131,4.758-4.759,4.758
						c-2.627,0-4.757-2.13-4.757-4.758c0-2.628,2.13-4.757,4.757-4.757C147.522,98.636,149.653,100.766,149.653,103.394z"/>
				</g>
				<g>
					<path style="fill:#DFE5FF;" d="M137.418,103.394c0,3.233-2.621,5.855-5.855,5.855c-3.234,0-5.856-2.622-5.856-5.855
						c0-3.236,2.622-5.855,5.856-5.855C134.797,97.538,137.418,100.158,137.418,103.394z"/>
					<path style="fill:#A5AFD3;" d="M135.362,103.395c0,2.097-1.702,3.8-3.8,3.8c-2.099,0-3.8-1.704-3.8-3.8
						c0-2.1,1.701-3.801,3.8-3.801C133.66,99.594,135.362,101.294,135.362,103.395z"/>
					<path style="fill:#F6F6F6;stroke:#003242;stroke-miterlimit:10;" d="M136.321,103.394c0,2.627-2.132,4.758-4.759,4.758
						c-2.628,0-4.759-2.13-4.759-4.758c0-2.628,2.131-4.757,4.759-4.757C134.189,98.636,136.321,100.766,136.321,103.394z"/>
				</g>
				<g>
					<path style="fill:#DFE5FF;" d="M164.083,103.394c0,3.233-2.623,5.855-5.855,5.855c-3.235,0-5.855-2.622-5.855-5.855
						c0-3.236,2.62-5.855,5.855-5.855C161.46,97.538,164.083,100.158,164.083,103.394z"/>
					<path style="fill:#A5AFD3;" d="M162.026,103.395c0,2.097-1.7,3.8-3.799,3.8c-2.099,0-3.8-1.704-3.8-3.8
						c0-2.1,1.701-3.801,3.8-3.801C160.326,99.594,162.026,101.294,162.026,103.395z"/>
					<path style="fill:#F6F6F6;stroke:#003242;stroke-miterlimit:10;" d="M162.985,103.394c0,2.627-2.131,4.758-4.758,4.758
						c-2.629,0-4.758-2.13-4.758-4.758c0-2.628,2.129-4.757,4.758-4.757C160.854,98.636,162.985,100.766,162.985,103.394z"/>
				</g>
			</g>
		</g>
		<polygon style="opacity:0.5;fill:#F6F6F6;" points="102.361,65.554 181.477,65.554 178.354,71.279 104.443,71.279 		"/>
	</g>
	<g>
		<g>
			<g>
				<path style="fill:#2F3C4F;" d="M317.014,265.889c0,3.195-2.993,5.787-6.687,5.787h-9.361c-3.691,0-6.685-2.592-6.685-5.787
					v-36.605c0-3.196,2.993-5.79,6.685-5.79h9.361c3.693,0,6.687,2.593,6.687,5.79V265.889z"/>
				<path style="fill:#2F3C4F;" d="M428.475,265.889c0,3.195-2.992,5.787-6.682,5.787h-9.361c-3.695,0-6.686-2.592-6.686-5.787
					v-36.605c0-3.196,2.991-5.79,6.686-5.79h9.361c3.689,0,6.682,2.593,6.682,5.79V265.889z"/>
			</g>
			<g style="opacity:0.3;">
				<path style="fill:#2F3C4F;" d="M304.764,257.182c4.156,0.785,8.203,1.307,12.25,1.518v-29.415c0-3.196-2.993-5.79-6.687-5.79
					h-9.361c-3.691,0-6.685,2.593-6.685,5.79v28.435C297.634,256.703,301.255,256.518,304.764,257.182z"/>
				<path style="fill:#2F3C4F;" d="M411.316,257.305c3.284-0.527,6.552-0.313,9.857-0.088c2.437,0.166,4.869,0.385,7.301,0.625
					v-28.558c0-3.196-2.992-5.79-6.682-5.79h-9.361c-3.695,0-6.686,2.593-6.686,5.79v29.753
					C407.53,258.24,409.39,257.613,411.316,257.305z"/>
			</g>
		</g>
		<rect x="281.861" y="59.688" style="fill:#A5AFD3;" width="159.032" height="172.77"/>
		<rect x="287.222" y="66.606" style="fill:#DFE5FF;" width="148.311" height="159.28"/>
		<rect x="287.184" y="232.247" style="fill:#49596B;" width="148.388" height="21.792"/>
		<rect x="283.552" y="235.014" style="fill:#DFE5FF;" width="155.651" height="14.527"/>
		<g>
			<g>
				<g>
					<rect x="283.552" y="241.415" style="fill:#FC4125;" width="26.979" height="9.338"/>
					<rect x="283.552" y="241.415" style="fill:#FF8800;" width="6.227" height="9.337"/>
					<rect x="300.154" y="241.242" style="fill:#FFFFFF;" width="2.767" height="9.338"/>
					<path style="opacity:0.3;fill:#8C95AF;" d="M304.449,248.103c-2.561-0.824-4.981-2.372-7.637-2.85
						c-3.94-0.711-7.556,1.65-11.479,1.164c-0.706-0.087-1.291-0.319-1.781-0.65v4.986h26.503
						C308.398,249.359,306.645,248.809,304.449,248.103z"/>
				</g>
			</g>
			<g>
				<g>
					<rect x="412.225" y="241.415" style="fill:#FC4125;" width="26.979" height="9.338"/>
					<rect x="412.225" y="241.415" style="fill:#FF8800;" width="6.226" height="9.337"/>
					<rect x="428.827" y="241.242" style="fill:#FFFFFF;" width="2.767" height="9.338"/>
					<path style="opacity:0.3;fill:#8C95AF;" d="M433.122,248.103c-2.563-0.824-4.983-2.372-7.638-2.85
						c-3.939-0.711-7.555,1.65-11.478,1.164c-0.707-0.087-1.291-0.319-1.781-0.65v4.986h26.503
						C437.069,249.359,435.316,248.809,433.122,248.103z"/>
				</g>
			</g>
		</g>
		<line style="fill:none;stroke:#003242;stroke-miterlimit:10;" x1="286.016" y1="237.954" x2="436.738" y2="237.954"/>
		<g>
			<rect x="341.998" y="240.767" style="fill:#2F3C4F;" width="38.759" height="13.565"/>
			<rect x="343.6" y="243.311" style="fill:#F6F6F6;" width="35.554" height="10.739"/>
		</g>
		<g>
			<rect x="334.593" y="240.808" style="fill:#2F3C4F;" width="2.334" height="5.448"/>
			<rect x="385.827" y="240.808" style="fill:#2F3C4F;" width="2.335" height="5.448"/>
		</g>
		<g>
			<rect x="281.217" y="229.385" style="fill:#2F3C4F;" width="31.131" height="3.389"/>
			<rect x="410.407" y="229.385" style="fill:#2F3C4F;" width="31.13" height="3.389"/>
		</g>
		<path style="opacity:0.5;fill:#DFE5FF;" d="M418.748,187.508c-7.124-7.71-16.088-13.253-26.108-16.363
			c-11.251-3.492-22.66-3.694-34.27-4.795c-9.482-0.9-19.174-2.622-27.711-7.044c-7.919-4.104-14.363-10.337-19.018-17.929
			c-13.883-22.642-14.053-50.415-23.634-74.77h-0.786v159.28h148.312v-7.646C432.068,207.017,426.768,196.188,418.748,187.508z"/>
		<g>
			<g>
				<rect x="281.866" y="81.006" style="fill:none;stroke:#003242;stroke-miterlimit:10;" width="17.121" height="6.226"/>
				<rect x="281.866" y="147.806" style="fill:none;stroke:#003242;stroke-miterlimit:10;" width="17.121" height="6.226"/>
				<rect x="281.866" y="214.606" style="fill:none;stroke:#003242;stroke-miterlimit:10;" width="17.121" height="6.226"/>
			</g>
			<g>
				<rect x="423.768" y="81.006" style="fill:none;stroke:#003242;stroke-miterlimit:10;" width="17.122" height="6.226"/>
				<rect x="423.768" y="147.806" style="fill:none;stroke:#003242;stroke-miterlimit:10;" width="17.122" height="6.226"/>
				<rect x="423.768" y="214.606" style="fill:none;stroke:#003242;stroke-miterlimit:10;" width="17.122" height="6.226"/>
			</g>
		</g>
		<rect x="359.042" y="66.219" style="fill:#A5AFD3;" width="4.67" height="163.952"/>
		<line style="fill:none;stroke:#003242;stroke-miterlimit:10;" x1="361.378" y1="66.566" x2="361.378" y2="232.594"/>
		<rect x="281.648" y="59.993" style="fill:#2F3C4F;" width="159.457" height="6.573"/>
		<rect x="345.294" y="61.031" style="fill:#FC4125;" width="32.168" height="2.42"/>
		<g>
			<g>
				<rect x="332.452" y="61.442" style="fill:#8C95AF;" width="1.297" height="173.562"/>
				<rect x="329.469" y="61.194" style="fill:#A5AFD3;" width="7.264" height="2.493"/>
				<rect x="329.21" y="232.511" style="fill:#2F3C4F;" width="7.264" height="2.493"/>
				<rect x="330.247" y="70.669" style="fill:#2F3C4F;" width="5.707" height="6.984"/>
				<rect x="330.204" y="123.037" style="fill:#2F3C4F;" width="5.708" height="6.982"/>
				<rect x="329.945" y="162.687" style="fill:#2F3C4F;" width="5.707" height="6.982"/>
				<rect x="329.685" y="217.298" style="fill:#2F3C4F;" width="5.707" height="6.983"/>
			</g>
			<g>
				<rect x="389.265" y="61.442" style="fill:#8C95AF;" width="1.297" height="173.562"/>
				<rect x="386.282" y="61.194" style="fill:#A5AFD3;" width="7.263" height="2.493"/>
				<rect x="386.021" y="232.511" style="fill:#2F3C4F;" width="7.264" height="2.493"/>
				<rect x="387.06" y="70.669" style="fill:#2F3C4F;" width="5.707" height="6.984"/>
				<rect x="387.018" y="123.037" style="fill:#2F3C4F;" width="5.706" height="6.982"/>
				<rect x="386.758" y="162.687" style="fill:#2F3C4F;" width="5.707" height="6.982"/>
				<rect x="386.498" y="217.298" style="fill:#2F3C4F;" width="5.708" height="6.983"/>
			</g>
		</g>
	</g>
</g>
</svg>
